<?xml version="1.0" encoding="utf-8"?>
<!-- Generator: Adobe Illustrator 27.1.1, SVG Export Plug-In . SVG Version: 6.00 Build 0)  -->
<svg version="1.1" id="Capa_1" xmlns="http://www.w3.org/2000/svg" xmlns:xlink="http://www.w3.org/1999/xlink" x="0px" y="0px"
	 viewBox="0 0 1360.6 364.1" style="enable-background:new 0 0 1360.6 364.1;" xml:space="preserve">
<style type="text/css">
	.st0{fill:none;stroke:#FFFFFF;stroke-width:2;stroke-miterlimit:10;}
	.st1{fill:#FFFFFF;}
	.st2{fill:#7E2B29;}
	.st3{fill:#863432;}
</style>
<g>
	<rect x="19.1" y="37.9" class="st0" width="297" height="297"/>
	<path class="st1" d="M90,125.1c1.7,0,3.4,0,5.1,0c3.7-0.1,5.3,1,6.2,4.6c2.4,9.2,4.6,18.5,7.1,27.6c6,21.5,13,42.6,22.2,62.9
		c4.5,10,10,19.5,17.1,28c1.4,1.7,2.9,3.2,4.5,4.6c7.4,6.5,15.8,6.5,23.3,0.1c7-6.1,12-13.7,16.2-21.9c7.5-14.7,12.9-30.1,17.3-45.9
		c4.7-17.3,8.8-34.8,13-52.2c1.4-5.6,2.3-6.5,8-6.5c10,0,20,0.1,29.6,3.4c3.6,1.2,7.2,2.8,10.5,4.8c6,3.5,7.7,9.1,4.9,15.6
		c-3.3,7.6-9,13.1-15.6,17.6c-9.9,6.7-20.2,12.6-31.3,17.1c-4.6,1.9-7.5,5-9,9.8c-6.2,19.7-14.9,38.3-27.2,55.1
		c-3.8,5.2-8.4,9.7-13.8,13.2c-8.3,5.5-16.7,5.6-25.1,0.5c-8.4-5-14.8-12.1-20.2-20.2c-10.4-15.8-18.6-32.6-24.7-50.5
		c-1.2-3.5-3.3-6-6.6-7.6C86.9,178,73.4,168.9,60.4,159c-5.5-4.2-8.3-9.6-8.7-16.4c-0.3-5.3,1.4-8.2,6.1-10.6
		C65.9,127.9,79.2,125.1,90,125.1z M267.1,145.8c0-2.4-1.7-4.3-5-4.9c-7.7-1.4-15.5-2.8-23.3-3.7c-7.3-0.8-8.4,0.4-9.7,7.5
		c-1.5,8.2-3.2,16.4-4.7,24.6c-0.2,1.1-0.2,3,0.3,3.3c1,0.5,2.7,0.5,3.8,0c2.7-1.2,5.3-2.6,7.8-4.1c9.2-5.9,18.4-11.9,27.6-17.9
		C265.6,149.5,267.1,148.1,267.1,145.8z M90.8,136.6c-4.4,0.7-9.7,1.4-14.9,2.3c-3.8,0.7-7.6,1.5-11.2,2.7c-3.4,1.1-4.2,3.9-2.1,6.8
		c1.3,1.9,3.1,3.7,5,5.1c10,7.6,21,13.3,32.1,18.9c2.9,1.4,4,0.7,3.6-2.5c-1.5-9.4-3-18.8-4.7-28.1
		C97.8,138.1,95.5,136.5,90.8,136.6z"/>
</g>
<g>
	<path class="st1" d="M398.3,52.7h-27.7v19.1h26.7v11.3h-26.7V121h-12V41.5h39.7V52.7z"/>
	<path class="st1" d="M472,87.1l24.6,33.9H482l-22.7-32.5h-2.2V121h-12V41.5h14.1c10.5,0,18.1,2,22.8,5.9c5.2,4.4,7.7,10.2,7.7,17.4
		c0,5.6-1.6,10.5-4.8,14.5C481.6,83.4,477.3,86,472,87.1z M457.1,78h3.8c11.4,0,17-4.3,17-13c0-8.1-5.5-12.2-16.6-12.2h-4.3V78z"/>
	<path class="st1" d="M553.5,41.5V121h-12V41.5H553.5z"/>
	<path class="st1" d="M646.4,79.6h32.9v2.6c0,6-0.7,11.3-2.1,15.9c-1.4,4.3-3.7,8.2-7,11.9c-7.4,8.3-16.8,12.5-28.2,12.5
		c-11.1,0-20.7-4-28.6-12.1c-7.9-8.1-11.9-17.7-11.9-29c0-11.5,4-21.3,12.1-29.4c8.1-8.1,17.9-12.1,29.5-12.1c6.2,0,12,1.3,17.4,3.8
		c5.1,2.5,10.2,6.7,15.2,12.4l-8.5,8.2c-6.5-8.7-14.5-13-23.8-13c-8.4,0-15.5,2.9-21.2,8.7c-5.7,5.7-8.5,12.8-8.5,21.4
		c0,8.9,3.2,16.2,9.5,21.9c5.9,5.3,12.4,8,19.3,8c5.9,0,11.2-2,15.9-6c4.7-4,7.3-8.8,7.9-14.4h-19.8V79.6z"/>
	<path class="st1" d="M723.3,80.9c0-11.2,4.1-20.8,12.3-28.8c8.2-8,18-12.1,29.5-12.1c11.3,0,21,4.1,29.1,12.2
		c8.1,8.1,12.2,17.8,12.2,29.2c0,11.4-4.1,21.1-12.3,29.1c-8.2,8-18.1,12-29.7,12c-10.3,0-19.5-3.6-27.7-10.7
		C727.8,103.9,723.3,93.6,723.3,80.9z M735.4,81c0,8.8,3,16,8.9,21.7c5.9,5.7,12.7,8.5,20.3,8.5c8.3,0,15.4-2.9,21.1-8.7
		c5.7-5.8,8.6-12.9,8.6-21.3c0-8.5-2.8-15.6-8.5-21.3c-5.6-5.8-12.6-8.7-20.9-8.7c-8.3,0-15.3,2.9-21,8.7
		C738.2,65.6,735.4,72.6,735.4,81z"/>
	<path class="st1" d="M881.3,87.1L906,121h-14.7l-22.7-32.5h-2.2V121h-12V41.5h14.1c10.5,0,18.1,2,22.8,5.9
		c5.1,4.4,7.7,10.2,7.7,17.4c0,5.6-1.6,10.5-4.8,14.5C890.9,83.4,886.6,86,881.3,87.1z M866.4,78h3.8c11.4,0,17-4.3,17-13
		c0-8.1-5.5-12.2-16.6-12.2h-4.3V78z"/>
	<path class="st1" d="M976.1,20.1l-19.8,14.2l-5.7-4.8l15.7-16.6L976.1,20.1z M962.8,41.5V121h-12V41.5H962.8z"/>
	<path class="st1" d="M1054.5,52.7h-27.7v19.1h26.7v11.3h-26.7V121h-12V41.5h39.7V52.7z"/>
	<path class="st1" d="M1113.3,41.5V121h-12V41.5H1113.3z"/>
	<path class="st1" d="M1224.1,45.7V60c-6.9-5.8-14.1-8.7-21.5-8.7c-8.2,0-15.1,2.9-20.7,8.8c-5.6,5.8-8.4,13-8.4,21.4
		c0,8.3,2.8,15.4,8.4,21.1c5.6,5.7,12.5,8.6,20.7,8.6c4.2,0,7.8-0.7,10.8-2.1c1.6-0.7,3.4-1.6,5.1-2.8c1.8-1.2,3.6-2.6,5.6-4.2v14.5
		c-6.9,3.9-14.1,5.8-21.6,5.8c-11.4,0-21.1-4-29.1-11.9c-8-8-12-17.6-12-28.9c0-10.1,3.3-19.2,10-27.1c8.2-9.7,18.9-14.6,32-14.6
		C1210.5,39.9,1217.4,41.9,1224.1,45.7z"/>
	<path class="st1" d="M1267.7,80.9c0-11.2,4.1-20.8,12.3-28.8c8.2-8,18-12.1,29.5-12.1c11.3,0,21,4.1,29.1,12.2
		c8.1,8.1,12.2,17.8,12.2,29.2c0,11.4-4.1,21.1-12.3,29.1c-8.2,8-18.1,12-29.7,12c-10.3,0-19.5-3.6-27.7-10.7
		C1272.2,103.9,1267.7,93.6,1267.7,80.9z M1279.8,81c0,8.8,3,16,8.9,21.7c5.9,5.7,12.7,8.5,20.3,8.5c8.3,0,15.4-2.9,21.1-8.7
		c5.7-5.8,8.6-12.9,8.6-21.3c0-8.5-2.8-15.6-8.5-21.3c-5.6-5.8-12.6-8.7-20.9-8.7c-8.3,0-15.3,2.9-21,8.7
		C1282.6,65.6,1279.8,72.6,1279.8,81z"/>
</g>
<g>
	<path class="st1" d="M360.5,313.2V329h-5.9v-39.1h6.7c3.3,0,5.7,0.2,7.4,0.7c1.7,0.5,3.2,1.3,4.5,2.6c2.2,2.2,3.4,5,3.4,8.3
		c0,3.6-1.2,6.4-3.6,8.5c-2.4,2.1-5.6,3.1-9.7,3.1H360.5z M360.5,307.7h2.2c5.4,0,8.1-2.1,8.1-6.3c0-4-2.8-6.1-8.4-6.1h-1.9V307.7z"
		/>
	<path class="st1" d="M417.7,319.5h-16.7l-4.4,9.5h-6.4l19.3-41.5l18.7,41.5h-6.5L417.7,319.5z M415.3,314l-5.8-13.3l-6.1,13.3
		H415.3z"/>
	<path class="st1" d="M456.7,295.5V329h-5.9v-33.5h-9v-5.5h23.8v5.5H456.7z"/>
	<path class="st1" d="M506.8,319.5H490l-4.4,9.5h-6.4l19.3-41.5l18.7,41.5h-6.5L506.8,319.5z M504.4,314l-5.8-13.3l-6.1,13.3H504.4z
		"/>
	<path class="st1" d="M555.5,308.7h16.2v1.3c0,2.9-0.3,5.5-1,7.8c-0.7,2.1-1.8,4-3.4,5.9c-3.6,4.1-8.2,6.1-13.8,6.1
		c-5.5,0-10.2-2-14.1-5.9c-3.9-4-5.8-8.7-5.8-14.3c0-5.7,2-10.5,5.9-14.4c4-4,8.8-5.9,14.5-5.9c3.1,0,5.9,0.6,8.6,1.9
		c2.5,1.2,5,3.3,7.5,6.1l-4.2,4c-3.2-4.3-7.1-6.4-11.7-6.4c-4.1,0-7.6,1.4-10.4,4.3c-2.8,2.8-4.2,6.3-4.2,10.5
		c0,4.4,1.6,7.9,4.7,10.8c2.9,2.6,6.1,3.9,9.5,3.9c2.9,0,5.5-1,7.8-2.9c2.3-2,3.6-4.3,3.9-7.1h-9.7V308.7z"/>
	<path class="st1" d="M592.1,309.3c0-5.5,2-10.2,6.1-14.2c4-3.9,8.8-5.9,14.5-5.9c5.6,0,10.3,2,14.3,6c4,4,6,8.8,6,14.4
		c0,5.6-2,10.4-6,14.3c-4,3.9-8.9,5.9-14.6,5.9c-5,0-9.6-1.7-13.6-5.2C594.3,320.6,592.1,315.6,592.1,309.3z M598.1,309.4
		c0,4.3,1.5,7.9,4.4,10.7c2.9,2.8,6.2,4.2,10,4.2c4.1,0,7.6-1.4,10.4-4.3c2.8-2.9,4.2-6.4,4.2-10.5c0-4.2-1.4-7.7-4.2-10.5
		c-2.8-2.8-6.2-4.3-10.3-4.3c-4.1,0-7.5,1.4-10.3,4.3C599.5,301.8,598.1,305.3,598.1,309.4z"/>
	<path class="st1" d="M655.4,329v-41.7l28.5,29.8v-27.2h5.9v41.5l-28.5-29.7V329H655.4z"/>
	<path class="st1" d="M720,289.9V329h-5.9v-39.1H720z"/>
	<path class="st1" d="M767.4,319.5h-16.7l-4.4,9.5h-6.4l19.3-41.5l18.7,41.5h-6.5L767.4,319.5z M765,314l-5.8-13.3l-6.1,13.3H765z"
		/>
</g>
<g>
	<path class="st1" d="M954.4,319.5h-16.7l-4.4,9.5H927l19.3-41.5L965,329h-6.5L954.4,319.5z M952,314l-5.8-13.3l-6.1,13.3H952z"/>
	<path class="st1" d="M998.1,312.4l12.1,16.7h-7.2l-11.2-16h-1.1v16h-5.9v-39.1h6.9c5.2,0,8.9,1,11.2,2.9c2.5,2.2,3.8,5,3.8,8.6
		c0,2.8-0.8,5.1-2.4,7.1C1002.8,310.5,1000.7,311.8,998.1,312.4z M990.7,307.9h1.9c5.6,0,8.4-2.1,8.4-6.4c0-4-2.7-6-8.2-6h-2.1
		V307.9z"/>
	<path class="st1" d="M1050.2,308.7h16.2v1.3c0,2.9-0.3,5.5-1,7.8c-0.7,2.1-1.8,4-3.4,5.9c-3.6,4.1-8.2,6.1-13.8,6.1
		c-5.5,0-10.2-2-14.1-5.9c-3.9-4-5.8-8.7-5.8-14.3c0-5.7,2-10.5,5.9-14.4c4-4,8.8-5.9,14.5-5.9c3.1,0,5.9,0.6,8.6,1.9
		c2.5,1.2,5,3.3,7.5,6.1l-4.2,4c-3.2-4.3-7.1-6.4-11.7-6.4c-4.1,0-7.6,1.4-10.4,4.3c-2.8,2.8-4.2,6.3-4.2,10.5
		c0,4.4,1.6,7.9,4.7,10.8c2.9,2.6,6.1,3.9,9.5,3.9c2.9,0,5.5-1,7.8-2.9c2.3-2,3.6-4.3,3.9-7.1h-9.7V308.7z"/>
	<path class="st1" d="M1110.4,295.5h-15.7v9.4h15.2v5.5h-15.2v13.1h15.7v5.5h-21.6v-39.1h21.6V295.5z"/>
	<path class="st1" d="M1133.1,329v-41.7l28.5,29.8v-27.2h5.9v41.5l-28.5-29.7V329H1133.1z"/>
	<path class="st1" d="M1202.6,295.5V329h-5.9v-33.5h-9v-5.5h23.8v5.5H1202.6z"/>
	<path class="st1" d="M1237.8,289.9V329h-5.9v-39.1H1237.8z"/>
	<path class="st1" d="M1262.1,329v-41.7l28.5,29.8v-27.2h5.9v41.5l-28.5-29.7V329H1262.1z"/>
	<path class="st1" d="M1344.2,319.5h-16.7l-4.4,9.5h-6.4l19.3-41.5l18.7,41.5h-6.5L1344.2,319.5z M1341.7,314l-5.8-13.3l-6.1,13.3
		H1341.7z"/>
</g>
<g>
	<path class="st1" d="M355.8,246.8l16.7-85.5l27.3,61.8l28.3-61.8l15,85.5h-12.3l-7.7-48l-23.5,51.7l-22.9-51.7l-8.5,48H355.8z"/>
	<path class="st1" d="M484.4,206.6c0-11.2,4.1-20.8,12.3-28.8c8.2-8,18-12.1,29.5-12.1c11.3,0,21,4.1,29.1,12.2
		c8.1,8.1,12.2,17.8,12.2,29.2c0,11.4-4.1,21.1-12.3,29.1c-8.2,8-18.1,12-29.7,12c-10.3,0-19.5-3.6-27.7-10.7
		C488.9,229.7,484.4,219.4,484.4,206.6z M496.5,206.8c0,8.8,3,16,8.9,21.7c5.9,5.7,12.7,8.5,20.3,8.5c8.3,0,15.4-2.9,21.1-8.7
		c5.7-5.8,8.6-12.9,8.6-21.3c0-8.5-2.8-15.6-8.5-21.3c-5.6-5.8-12.6-8.7-20.9-8.7c-8.3,0-15.3,2.9-21,8.7
		C499.3,191.4,496.5,198.4,496.5,206.8z"/>
	<path class="st1" d="M611,246.8v-84.9l58,60.7v-55.3h12v84.4l-58-60.5v55.7H611z"/>
	<path class="st1" d="M750.3,178.5v68.2h-12v-68.2H720v-11.3h48.5v11.3H750.3z"/>
	<path class="st1" d="M851.5,178.5h-31.9v19.1h31v11.3h-31v26.6h31.9v11.3h-43.9v-79.5h43.9V178.5z"/>
	<path class="st1" d="M954.4,171.5v14.2c-6.9-5.8-14.1-8.7-21.5-8.7c-8.2,0-15.1,2.9-20.7,8.8c-5.6,5.8-8.4,13-8.4,21.4
		c0,8.3,2.8,15.4,8.4,21.1c5.6,5.7,12.5,8.6,20.7,8.6c4.2,0,7.8-0.7,10.8-2.1c1.6-0.7,3.4-1.6,5.1-2.8c1.8-1.2,3.6-2.6,5.6-4.2v14.5
		c-6.9,3.9-14.1,5.8-21.6,5.8c-11.4,0-21.1-4-29.1-11.9c-8-8-12-17.6-12-28.9c0-10.1,3.3-19.2,10-27.1c8.2-9.7,18.9-14.6,32-14.6
		C940.8,165.7,947.7,167.6,954.4,171.5z"/>
	<path class="st1" d="M1046.5,227.5h-34l-8.9,19.3h-12.9l39.3-84.5l38,84.5h-13.1L1046.5,227.5z M1041.6,216.2l-11.8-27l-12.4,27
		H1041.6z"/>
	<path class="st1" d="M1133.2,212.9l24.6,33.9h-14.7l-22.7-32.5h-2.2v32.5h-12v-79.5h14.1c10.5,0,18.1,2,22.8,5.9
		c5.1,4.4,7.7,10.2,7.7,17.4c0,5.6-1.6,10.5-4.8,14.5C1142.8,209.2,1138.5,211.7,1133.2,212.9z M1118.3,203.8h3.8
		c11.4,0,17-4.3,17-13c0-8.1-5.5-12.2-16.6-12.2h-4.3V203.8z"/>
	<path class="st1" d="M1210.2,167.3v68.2h23.4v11.3h-35.4v-79.5H1210.2z"/>
	<path class="st1" d="M1266.1,206.6c0-11.2,4.1-20.8,12.3-28.8c8.2-8,18-12.1,29.5-12.1c11.3,0,21,4.1,29.1,12.2
		c8.1,8.1,12.2,17.8,12.2,29.2c0,11.4-4.1,21.1-12.3,29.1c-8.2,8-18.1,12-29.7,12c-10.3,0-19.5-3.6-27.7-10.7
		C1270.6,229.7,1266.1,219.4,1266.1,206.6z M1278.2,206.8c0,8.8,3,16,8.9,21.7c5.9,5.7,12.7,8.5,20.3,8.5c8.3,0,15.4-2.9,21.1-8.7
		c5.7-5.8,8.6-12.9,8.6-21.3c0-8.5-2.8-15.6-8.5-21.3c-5.6-5.8-12.6-8.7-20.9-8.7c-8.3,0-15.3,2.9-21,8.7
		C1281.1,191.4,1278.2,198.4,1278.2,206.8z"/>
</g>
<circle class="st1" cx="851.3" cy="309.9" r="15.7"/>
</svg>
